%TF.GenerationSoftware,KiCad,Pcbnew,10.0.3*%
%TF.CreationDate,2026-05-27T00:10:38-07:00*%
%TF.ProjectId,sd-led-card,73642d6c-6564-42d6-9361-72642e6b6963,rev?*%
%TF.SameCoordinates,Original*%
%TF.FileFunction,Copper,L1,Top*%
%TF.FilePolarity,Positive*%
%FSLAX46Y46*%
G04 Gerber Fmt 4.6, Leading zero omitted, Abs format (unit mm)*
G04 Created by KiCad (PCBNEW 10.0.3) date 2026-05-27 00:10:38*
%MOMM*%
%LPD*%
G01*
G04 APERTURE LIST*
G04 Aperture macros list*
%AMRoundRect*
0 Rectangle with rounded corners*
0 $1 Rounding radius*
0 $2 $3 $4 $5 $6 $7 $8 $9 X,Y pos of 4 corners*
0 Add a 4 corners polygon primitive as box body*
4,1,4,$2,$3,$4,$5,$6,$7,$8,$9,$2,$3,0*
0 Add four circle primitives for the rounded corners*
1,1,$1+$1,$2,$3*
1,1,$1+$1,$4,$5*
1,1,$1+$1,$6,$7*
1,1,$1+$1,$8,$9*
0 Add four rect primitives between the rounded corners*
20,1,$1+$1,$2,$3,$4,$5,0*
20,1,$1+$1,$4,$5,$6,$7,0*
20,1,$1+$1,$6,$7,$8,$9,0*
20,1,$1+$1,$8,$9,$2,$3,0*%
G04 Aperture macros list end*
%TA.AperFunction,SMDPad,CuDef*%
%ADD10RoundRect,0.150000X-0.475000X-1.050000X0.475000X-1.050000X0.475000X1.050000X-0.475000X1.050000X0*%
%TD*%
%TA.AperFunction,ViaPad*%
%ADD11C,0.550000*%
%TD*%
%TA.AperFunction,Conductor*%
%ADD12C,0.200000*%
%TD*%
G04 APERTURE END LIST*
D10*
%TO.P,J2,1*%
%TO.N,SD_DAT2*%
X58500000Y-80500000D03*
%TO.P,J2,2*%
%TO.N,SD_DAT3*%
X55700000Y-80500000D03*
%TO.P,J2,3*%
%TO.N,SD_CMD*%
X52900000Y-80500000D03*
%TO.P,J2,4*%
%TO.N,+3V3*%
X50100000Y-80500000D03*
%TO.P,J2,5*%
%TO.N,SD_CLK*%
X47300000Y-80500000D03*
%TO.P,J2,6*%
%TO.N,GND*%
X44500000Y-80500000D03*
%TO.P,J2,7*%
%TO.N,SD_DAT0*%
X41700000Y-80500000D03*
%TO.P,J2,8*%
%TO.N,SD_DAT1*%
X38900000Y-80500000D03*
%TO.P,J2,9*%
%TO.N,SD_VSS2*%
X61300000Y-80500000D03*
%TD*%
D11*
%TO.N,SD_DAT2*%
X56875000Y-42200000D03*
%TO.N,SD_DAT3*%
X54375000Y-42200000D03*
%TO.N,SD_CMD*%
X51875000Y-42200000D03*
%TO.N,+3V3*%
X49375000Y-42200000D03*
%TO.N,SD_CLK*%
X46875000Y-42200000D03*
%TO.N,GND*%
X44375000Y-42200000D03*
%TO.N,SD_DAT0*%
X41950000Y-42200000D03*
%TO.N,SD_DAT1*%
X40250000Y-42200000D03*
%TO.N,SD_VSS2*%
X59375000Y-42200000D03*
%TD*%
%TO.N,SD_DAT2*%
D12*
X53000000Y-68000000D02*
X58500000Y-74000000D01*
X56875000Y-63000000D02*
X53000000Y-68000000D01*
X58500000Y-74000000D02*
X58500000Y-79300000D01*
X56875000Y-42200000D02*
X56875000Y-63000000D01*
%TO.N,SD_DAT3*%
X54375000Y-63000000D02*
X51500000Y-68000000D01*
X51500000Y-68000000D02*
X55700000Y-74000000D01*
X54375000Y-42200000D02*
X54375000Y-63000000D01*
X55700000Y-74000000D02*
X55700000Y-79300000D01*
%TO.N,SD_CMD*%
X52900000Y-74000000D02*
X52900000Y-79300000D01*
X51875000Y-42200000D02*
X51875000Y-63000000D01*
X50000000Y-68000000D02*
X52900000Y-74000000D01*
X51875000Y-63000000D02*
X50000000Y-68000000D01*
%TO.N,+3V3*%
X49375000Y-63000000D02*
X48500000Y-68000000D01*
X49375000Y-42200000D02*
X49375000Y-63000000D01*
X48500000Y-68000000D02*
X50100000Y-74000000D01*
X50100000Y-74000000D02*
X50100000Y-79300000D01*
%TO.N,SD_CLK*%
X46875000Y-63000000D02*
X47200000Y-68000000D01*
X47200000Y-68000000D02*
X47300000Y-74000000D01*
X47300000Y-74000000D02*
X47300000Y-79300000D01*
X46875000Y-42200000D02*
X46875000Y-63000000D01*
%TO.N,GND*%
X44375000Y-63000000D02*
X46200000Y-68000000D01*
X44375000Y-42200000D02*
X44375000Y-63000000D01*
X46200000Y-68000000D02*
X44500000Y-74000000D01*
X44500000Y-74000000D02*
X44500000Y-79300000D01*
%TO.N,SD_DAT0*%
X41700000Y-74000000D02*
X41700000Y-79300000D01*
X45200000Y-68000000D02*
X41700000Y-74000000D01*
X41950000Y-42200000D02*
X41950000Y-63000000D01*
X41950000Y-63000000D02*
X45200000Y-68000000D01*
%TO.N,SD_DAT1*%
X44200000Y-68000000D02*
X38900000Y-74000000D01*
X38900000Y-74000000D02*
X38900000Y-79300000D01*
X40250000Y-63000000D02*
X44200000Y-68000000D01*
X40250000Y-42200000D02*
X40250000Y-63000000D01*
%TO.N,SD_VSS2*%
X55000000Y-68000000D02*
X61300000Y-74000000D01*
X59375000Y-63000000D02*
X55000000Y-68000000D01*
X61300000Y-74000000D02*
X61300000Y-79300000D01*
X59375000Y-42200000D02*
X59375000Y-63000000D01*
%TD*%
M02*
