%TF.GenerationSoftware,KiCad,Pcbnew,10.0.3*%
%TF.CreationDate,2026-05-27T00:10:38-07:00*%
%TF.ProjectId,sd-led-card,73642d6c-6564-42d6-9361-72642e6b6963,rev?*%
%TF.SameCoordinates,Original*%
%TF.FileFunction,Drillmap*%
%TF.FilePolarity,Positive*%
%FSLAX45Y45*%
G04 Gerber Fmt 4.5, Leading zero omitted, Abs format (unit mm)*
G04 Created by KiCad (PCBNEW 10.0.3) date 2026-05-27 00:10:38*
%MOMM*%
%LPD*%
G01*
G04 APERTURE LIST*
%ADD10C,0.120000*%
%ADD11C,0.200000*%
%ADD12C,0.100000*%
G04 APERTURE END LIST*
D10*
X3600000Y-6900000D02*
X3600000Y-8800000D01*
X3600000Y-8800000D02*
X6400000Y-8800000D01*
X3800000Y-4995000D02*
X3800000Y-6500000D01*
X3900000Y-6600000D02*
G75*
G02*
X3800000Y-6500000I0J100000D01*
G01*
X3900000Y-6600000D02*
X4350000Y-6600000D01*
X4350000Y-6600000D02*
X4350000Y-6900000D01*
X4350000Y-6900000D02*
X3600000Y-6900000D01*
X5650000Y-6600000D02*
X6100000Y-6600000D01*
X5650000Y-6900000D02*
X5650000Y-6600000D01*
X6200000Y-6500000D02*
G75*
G02*
X6100000Y-6600000I-100000J0D01*
G01*
X6200000Y-6500000D02*
X6200000Y-4995000D01*
X6400000Y-6900000D02*
X5650000Y-6900000D01*
X6400000Y-8800000D02*
X6400000Y-6900000D01*
X3800000Y-4995000D02*
X3800000Y-3500000D01*
X3900000Y-3400000D02*
X5779289Y-3400000D01*
X5814645Y-3414645D02*
X6185355Y-3785355D01*
X6125000Y-4400000D02*
X6125000Y-4550000D01*
X6125000Y-4550000D02*
X6200000Y-4550000D01*
X6200000Y-3820711D02*
X6200000Y-4400000D01*
X6200000Y-4400000D02*
X6125000Y-4400000D01*
X6200000Y-4550000D02*
X6200000Y-4995000D01*
X3800000Y-3500000D02*
G75*
G02*
X3900000Y-3400000I100000J0D01*
G01*
X5779289Y-3400000D02*
G75*
G02*
X5814645Y-3414644I1J-50000D01*
G01*
X6185355Y-3785355D02*
G75*
G02*
X6199999Y-3820711I-35355J-35355D01*
G01*
D11*
D12*
X4010000Y-4205000D02*
X4040000Y-4235000D01*
X4040000Y-4205000D02*
X4010000Y-4235000D01*
X4180000Y-4205000D02*
X4210000Y-4235000D01*
X4210000Y-4205000D02*
X4180000Y-4235000D01*
X4422500Y-4205000D02*
X4452500Y-4235000D01*
X4452500Y-4205000D02*
X4422500Y-4235000D01*
X4672500Y-4205000D02*
X4702500Y-4235000D01*
X4702500Y-4205000D02*
X4672500Y-4235000D01*
X4922500Y-4205000D02*
X4952500Y-4235000D01*
X4952500Y-4205000D02*
X4922500Y-4235000D01*
X5172500Y-4205000D02*
X5202500Y-4235000D01*
X5202500Y-4205000D02*
X5172500Y-4235000D01*
X5422500Y-4205000D02*
X5452500Y-4235000D01*
X5452500Y-4205000D02*
X5422500Y-4235000D01*
X5672500Y-4205000D02*
X5702500Y-4235000D01*
X5702500Y-4205000D02*
X5672500Y-4235000D01*
X5922500Y-4205000D02*
X5952500Y-4235000D01*
X5952500Y-4205000D02*
X5922500Y-4235000D01*
D11*
X3854777Y-9117484D02*
X3854777Y-8917484D01*
X3854777Y-8917484D02*
X3902396Y-8917484D01*
X3902396Y-8917484D02*
X3930967Y-8927008D01*
X3930967Y-8927008D02*
X3950015Y-8946055D01*
X3950015Y-8946055D02*
X3959539Y-8965103D01*
X3959539Y-8965103D02*
X3969062Y-9003198D01*
X3969062Y-9003198D02*
X3969062Y-9031770D01*
X3969062Y-9031770D02*
X3959539Y-9069865D01*
X3959539Y-9069865D02*
X3950015Y-9088912D01*
X3950015Y-9088912D02*
X3930967Y-9107960D01*
X3930967Y-9107960D02*
X3902396Y-9117484D01*
X3902396Y-9117484D02*
X3854777Y-9117484D01*
X4054777Y-9117484D02*
X4054777Y-8984150D01*
X4054777Y-9022246D02*
X4064301Y-9003198D01*
X4064301Y-9003198D02*
X4073824Y-8993674D01*
X4073824Y-8993674D02*
X4092872Y-8984150D01*
X4092872Y-8984150D02*
X4111920Y-8984150D01*
X4178586Y-9117484D02*
X4178586Y-8984150D01*
X4178586Y-8917484D02*
X4169062Y-8927008D01*
X4169062Y-8927008D02*
X4178586Y-8936531D01*
X4178586Y-8936531D02*
X4188110Y-8927008D01*
X4188110Y-8927008D02*
X4178586Y-8917484D01*
X4178586Y-8917484D02*
X4178586Y-8936531D01*
X4302396Y-9117484D02*
X4283348Y-9107960D01*
X4283348Y-9107960D02*
X4273824Y-9088912D01*
X4273824Y-9088912D02*
X4273824Y-8917484D01*
X4407158Y-9117484D02*
X4388110Y-9107960D01*
X4388110Y-9107960D02*
X4378586Y-9088912D01*
X4378586Y-9088912D02*
X4378586Y-8917484D01*
X4635729Y-9117484D02*
X4635729Y-8917484D01*
X4635729Y-8917484D02*
X4702396Y-9060341D01*
X4702396Y-9060341D02*
X4769063Y-8917484D01*
X4769063Y-8917484D02*
X4769063Y-9117484D01*
X4950015Y-9117484D02*
X4950015Y-9012722D01*
X4950015Y-9012722D02*
X4940491Y-8993674D01*
X4940491Y-8993674D02*
X4921444Y-8984150D01*
X4921444Y-8984150D02*
X4883348Y-8984150D01*
X4883348Y-8984150D02*
X4864301Y-8993674D01*
X4950015Y-9107960D02*
X4930967Y-9117484D01*
X4930967Y-9117484D02*
X4883348Y-9117484D01*
X4883348Y-9117484D02*
X4864301Y-9107960D01*
X4864301Y-9107960D02*
X4854777Y-9088912D01*
X4854777Y-9088912D02*
X4854777Y-9069865D01*
X4854777Y-9069865D02*
X4864301Y-9050817D01*
X4864301Y-9050817D02*
X4883348Y-9041293D01*
X4883348Y-9041293D02*
X4930967Y-9041293D01*
X4930967Y-9041293D02*
X4950015Y-9031770D01*
X5045253Y-8984150D02*
X5045253Y-9184150D01*
X5045253Y-8993674D02*
X5064301Y-8984150D01*
X5064301Y-8984150D02*
X5102396Y-8984150D01*
X5102396Y-8984150D02*
X5121444Y-8993674D01*
X5121444Y-8993674D02*
X5130967Y-9003198D01*
X5130967Y-9003198D02*
X5140491Y-9022246D01*
X5140491Y-9022246D02*
X5140491Y-9079389D01*
X5140491Y-9079389D02*
X5130967Y-9098436D01*
X5130967Y-9098436D02*
X5121444Y-9107960D01*
X5121444Y-9107960D02*
X5102396Y-9117484D01*
X5102396Y-9117484D02*
X5064301Y-9117484D01*
X5064301Y-9117484D02*
X5045253Y-9107960D01*
X5226205Y-9098436D02*
X5235729Y-9107960D01*
X5235729Y-9107960D02*
X5226205Y-9117484D01*
X5226205Y-9117484D02*
X5216682Y-9107960D01*
X5216682Y-9107960D02*
X5226205Y-9098436D01*
X5226205Y-9098436D02*
X5226205Y-9117484D01*
X5226205Y-8993674D02*
X5235729Y-9003198D01*
X5235729Y-9003198D02*
X5226205Y-9012722D01*
X5226205Y-9012722D02*
X5216682Y-9003198D01*
X5216682Y-9003198D02*
X5226205Y-8993674D01*
X5226205Y-8993674D02*
X5226205Y-9012722D01*
D12*
X3564000Y-9431000D02*
X3594000Y-9461000D01*
X3594000Y-9431000D02*
X3564000Y-9461000D01*
D11*
X3892872Y-9337484D02*
X3911920Y-9337484D01*
X3911920Y-9337484D02*
X3930967Y-9347008D01*
X3930967Y-9347008D02*
X3940491Y-9356531D01*
X3940491Y-9356531D02*
X3950015Y-9375579D01*
X3950015Y-9375579D02*
X3959539Y-9413674D01*
X3959539Y-9413674D02*
X3959539Y-9461293D01*
X3959539Y-9461293D02*
X3950015Y-9499389D01*
X3950015Y-9499389D02*
X3940491Y-9518436D01*
X3940491Y-9518436D02*
X3930967Y-9527960D01*
X3930967Y-9527960D02*
X3911920Y-9537484D01*
X3911920Y-9537484D02*
X3892872Y-9537484D01*
X3892872Y-9537484D02*
X3873824Y-9527960D01*
X3873824Y-9527960D02*
X3864301Y-9518436D01*
X3864301Y-9518436D02*
X3854777Y-9499389D01*
X3854777Y-9499389D02*
X3845253Y-9461293D01*
X3845253Y-9461293D02*
X3845253Y-9413674D01*
X3845253Y-9413674D02*
X3854777Y-9375579D01*
X3854777Y-9375579D02*
X3864301Y-9356531D01*
X3864301Y-9356531D02*
X3873824Y-9347008D01*
X3873824Y-9347008D02*
X3892872Y-9337484D01*
X4045253Y-9518436D02*
X4054777Y-9527960D01*
X4054777Y-9527960D02*
X4045253Y-9537484D01*
X4045253Y-9537484D02*
X4035729Y-9527960D01*
X4035729Y-9527960D02*
X4045253Y-9518436D01*
X4045253Y-9518436D02*
X4045253Y-9537484D01*
X4121443Y-9337484D02*
X4245253Y-9337484D01*
X4245253Y-9337484D02*
X4178586Y-9413674D01*
X4178586Y-9413674D02*
X4207158Y-9413674D01*
X4207158Y-9413674D02*
X4226205Y-9423198D01*
X4226205Y-9423198D02*
X4235729Y-9432722D01*
X4235729Y-9432722D02*
X4245253Y-9451770D01*
X4245253Y-9451770D02*
X4245253Y-9499389D01*
X4245253Y-9499389D02*
X4235729Y-9518436D01*
X4235729Y-9518436D02*
X4226205Y-9527960D01*
X4226205Y-9527960D02*
X4207158Y-9537484D01*
X4207158Y-9537484D02*
X4150015Y-9537484D01*
X4150015Y-9537484D02*
X4130967Y-9527960D01*
X4130967Y-9527960D02*
X4121443Y-9518436D01*
X4369063Y-9337484D02*
X4388110Y-9337484D01*
X4388110Y-9337484D02*
X4407158Y-9347008D01*
X4407158Y-9347008D02*
X4416682Y-9356531D01*
X4416682Y-9356531D02*
X4426205Y-9375579D01*
X4426205Y-9375579D02*
X4435729Y-9413674D01*
X4435729Y-9413674D02*
X4435729Y-9461293D01*
X4435729Y-9461293D02*
X4426205Y-9499389D01*
X4426205Y-9499389D02*
X4416682Y-9518436D01*
X4416682Y-9518436D02*
X4407158Y-9527960D01*
X4407158Y-9527960D02*
X4388110Y-9537484D01*
X4388110Y-9537484D02*
X4369063Y-9537484D01*
X4369063Y-9537484D02*
X4350015Y-9527960D01*
X4350015Y-9527960D02*
X4340491Y-9518436D01*
X4340491Y-9518436D02*
X4330967Y-9499389D01*
X4330967Y-9499389D02*
X4321444Y-9461293D01*
X4321444Y-9461293D02*
X4321444Y-9413674D01*
X4321444Y-9413674D02*
X4330967Y-9375579D01*
X4330967Y-9375579D02*
X4340491Y-9356531D01*
X4340491Y-9356531D02*
X4350015Y-9347008D01*
X4350015Y-9347008D02*
X4369063Y-9337484D01*
X4559539Y-9337484D02*
X4578586Y-9337484D01*
X4578586Y-9337484D02*
X4597634Y-9347008D01*
X4597634Y-9347008D02*
X4607158Y-9356531D01*
X4607158Y-9356531D02*
X4616682Y-9375579D01*
X4616682Y-9375579D02*
X4626205Y-9413674D01*
X4626205Y-9413674D02*
X4626205Y-9461293D01*
X4626205Y-9461293D02*
X4616682Y-9499389D01*
X4616682Y-9499389D02*
X4607158Y-9518436D01*
X4607158Y-9518436D02*
X4597634Y-9527960D01*
X4597634Y-9527960D02*
X4578586Y-9537484D01*
X4578586Y-9537484D02*
X4559539Y-9537484D01*
X4559539Y-9537484D02*
X4540491Y-9527960D01*
X4540491Y-9527960D02*
X4530967Y-9518436D01*
X4530967Y-9518436D02*
X4521444Y-9499389D01*
X4521444Y-9499389D02*
X4511920Y-9461293D01*
X4511920Y-9461293D02*
X4511920Y-9413674D01*
X4511920Y-9413674D02*
X4521444Y-9375579D01*
X4521444Y-9375579D02*
X4530967Y-9356531D01*
X4530967Y-9356531D02*
X4540491Y-9347008D01*
X4540491Y-9347008D02*
X4559539Y-9337484D01*
X4711920Y-9537484D02*
X4711920Y-9404150D01*
X4711920Y-9423198D02*
X4721444Y-9413674D01*
X4721444Y-9413674D02*
X4740491Y-9404150D01*
X4740491Y-9404150D02*
X4769063Y-9404150D01*
X4769063Y-9404150D02*
X4788110Y-9413674D01*
X4788110Y-9413674D02*
X4797634Y-9432722D01*
X4797634Y-9432722D02*
X4797634Y-9537484D01*
X4797634Y-9432722D02*
X4807158Y-9413674D01*
X4807158Y-9413674D02*
X4826205Y-9404150D01*
X4826205Y-9404150D02*
X4854777Y-9404150D01*
X4854777Y-9404150D02*
X4873825Y-9413674D01*
X4873825Y-9413674D02*
X4883348Y-9432722D01*
X4883348Y-9432722D02*
X4883348Y-9537484D01*
X4978586Y-9537484D02*
X4978586Y-9404150D01*
X4978586Y-9423198D02*
X4988110Y-9413674D01*
X4988110Y-9413674D02*
X5007158Y-9404150D01*
X5007158Y-9404150D02*
X5035729Y-9404150D01*
X5035729Y-9404150D02*
X5054777Y-9413674D01*
X5054777Y-9413674D02*
X5064301Y-9432722D01*
X5064301Y-9432722D02*
X5064301Y-9537484D01*
X5064301Y-9432722D02*
X5073825Y-9413674D01*
X5073825Y-9413674D02*
X5092872Y-9404150D01*
X5092872Y-9404150D02*
X5121444Y-9404150D01*
X5121444Y-9404150D02*
X5140491Y-9413674D01*
X5140491Y-9413674D02*
X5150015Y-9432722D01*
X5150015Y-9432722D02*
X5150015Y-9537484D01*
X5540491Y-9327960D02*
X5369063Y-9585103D01*
X5797634Y-9337484D02*
X5816682Y-9337484D01*
X5816682Y-9337484D02*
X5835729Y-9347008D01*
X5835729Y-9347008D02*
X5845253Y-9356531D01*
X5845253Y-9356531D02*
X5854777Y-9375579D01*
X5854777Y-9375579D02*
X5864301Y-9413674D01*
X5864301Y-9413674D02*
X5864301Y-9461293D01*
X5864301Y-9461293D02*
X5854777Y-9499389D01*
X5854777Y-9499389D02*
X5845253Y-9518436D01*
X5845253Y-9518436D02*
X5835729Y-9527960D01*
X5835729Y-9527960D02*
X5816682Y-9537484D01*
X5816682Y-9537484D02*
X5797634Y-9537484D01*
X5797634Y-9537484D02*
X5778586Y-9527960D01*
X5778586Y-9527960D02*
X5769063Y-9518436D01*
X5769063Y-9518436D02*
X5759539Y-9499389D01*
X5759539Y-9499389D02*
X5750015Y-9461293D01*
X5750015Y-9461293D02*
X5750015Y-9413674D01*
X5750015Y-9413674D02*
X5759539Y-9375579D01*
X5759539Y-9375579D02*
X5769063Y-9356531D01*
X5769063Y-9356531D02*
X5778586Y-9347008D01*
X5778586Y-9347008D02*
X5797634Y-9337484D01*
X5950015Y-9518436D02*
X5959539Y-9527960D01*
X5959539Y-9527960D02*
X5950015Y-9537484D01*
X5950015Y-9537484D02*
X5940491Y-9527960D01*
X5940491Y-9527960D02*
X5950015Y-9518436D01*
X5950015Y-9518436D02*
X5950015Y-9537484D01*
X6083348Y-9337484D02*
X6102396Y-9337484D01*
X6102396Y-9337484D02*
X6121444Y-9347008D01*
X6121444Y-9347008D02*
X6130967Y-9356531D01*
X6130967Y-9356531D02*
X6140491Y-9375579D01*
X6140491Y-9375579D02*
X6150015Y-9413674D01*
X6150015Y-9413674D02*
X6150015Y-9461293D01*
X6150015Y-9461293D02*
X6140491Y-9499389D01*
X6140491Y-9499389D02*
X6130967Y-9518436D01*
X6130967Y-9518436D02*
X6121444Y-9527960D01*
X6121444Y-9527960D02*
X6102396Y-9537484D01*
X6102396Y-9537484D02*
X6083348Y-9537484D01*
X6083348Y-9537484D02*
X6064301Y-9527960D01*
X6064301Y-9527960D02*
X6054777Y-9518436D01*
X6054777Y-9518436D02*
X6045253Y-9499389D01*
X6045253Y-9499389D02*
X6035729Y-9461293D01*
X6035729Y-9461293D02*
X6035729Y-9413674D01*
X6035729Y-9413674D02*
X6045253Y-9375579D01*
X6045253Y-9375579D02*
X6054777Y-9356531D01*
X6054777Y-9356531D02*
X6064301Y-9347008D01*
X6064301Y-9347008D02*
X6083348Y-9337484D01*
X6340491Y-9537484D02*
X6226206Y-9537484D01*
X6283348Y-9537484D02*
X6283348Y-9337484D01*
X6283348Y-9337484D02*
X6264301Y-9366055D01*
X6264301Y-9366055D02*
X6245253Y-9385103D01*
X6245253Y-9385103D02*
X6226206Y-9394627D01*
X6530967Y-9537484D02*
X6416682Y-9537484D01*
X6473825Y-9537484D02*
X6473825Y-9337484D01*
X6473825Y-9337484D02*
X6454777Y-9366055D01*
X6454777Y-9366055D02*
X6435729Y-9385103D01*
X6435729Y-9385103D02*
X6416682Y-9394627D01*
X6645253Y-9423198D02*
X6626206Y-9413674D01*
X6626206Y-9413674D02*
X6616682Y-9404150D01*
X6616682Y-9404150D02*
X6607158Y-9385103D01*
X6607158Y-9385103D02*
X6607158Y-9375579D01*
X6607158Y-9375579D02*
X6616682Y-9356531D01*
X6616682Y-9356531D02*
X6626206Y-9347008D01*
X6626206Y-9347008D02*
X6645253Y-9337484D01*
X6645253Y-9337484D02*
X6683348Y-9337484D01*
X6683348Y-9337484D02*
X6702396Y-9347008D01*
X6702396Y-9347008D02*
X6711920Y-9356531D01*
X6711920Y-9356531D02*
X6721444Y-9375579D01*
X6721444Y-9375579D02*
X6721444Y-9385103D01*
X6721444Y-9385103D02*
X6711920Y-9404150D01*
X6711920Y-9404150D02*
X6702396Y-9413674D01*
X6702396Y-9413674D02*
X6683348Y-9423198D01*
X6683348Y-9423198D02*
X6645253Y-9423198D01*
X6645253Y-9423198D02*
X6626206Y-9432722D01*
X6626206Y-9432722D02*
X6616682Y-9442246D01*
X6616682Y-9442246D02*
X6607158Y-9461293D01*
X6607158Y-9461293D02*
X6607158Y-9499389D01*
X6607158Y-9499389D02*
X6616682Y-9518436D01*
X6616682Y-9518436D02*
X6626206Y-9527960D01*
X6626206Y-9527960D02*
X6645253Y-9537484D01*
X6645253Y-9537484D02*
X6683348Y-9537484D01*
X6683348Y-9537484D02*
X6702396Y-9527960D01*
X6702396Y-9527960D02*
X6711920Y-9518436D01*
X6711920Y-9518436D02*
X6721444Y-9499389D01*
X6721444Y-9499389D02*
X6721444Y-9461293D01*
X6721444Y-9461293D02*
X6711920Y-9442246D01*
X6711920Y-9442246D02*
X6702396Y-9432722D01*
X6702396Y-9432722D02*
X6683348Y-9423198D01*
X6797634Y-9337484D02*
X6797634Y-9375579D01*
X6873825Y-9337484D02*
X6873825Y-9375579D01*
X7169063Y-9613674D02*
X7159539Y-9604150D01*
X7159539Y-9604150D02*
X7140491Y-9575579D01*
X7140491Y-9575579D02*
X7130968Y-9556531D01*
X7130968Y-9556531D02*
X7121444Y-9527960D01*
X7121444Y-9527960D02*
X7111920Y-9480341D01*
X7111920Y-9480341D02*
X7111920Y-9442246D01*
X7111920Y-9442246D02*
X7121444Y-9394627D01*
X7121444Y-9394627D02*
X7130968Y-9366055D01*
X7130968Y-9366055D02*
X7140491Y-9347008D01*
X7140491Y-9347008D02*
X7159539Y-9318436D01*
X7159539Y-9318436D02*
X7169063Y-9308912D01*
X7254777Y-9537484D02*
X7292872Y-9537484D01*
X7292872Y-9537484D02*
X7311920Y-9527960D01*
X7311920Y-9527960D02*
X7321444Y-9518436D01*
X7321444Y-9518436D02*
X7340491Y-9489865D01*
X7340491Y-9489865D02*
X7350015Y-9451770D01*
X7350015Y-9451770D02*
X7350015Y-9375579D01*
X7350015Y-9375579D02*
X7340491Y-9356531D01*
X7340491Y-9356531D02*
X7330968Y-9347008D01*
X7330968Y-9347008D02*
X7311920Y-9337484D01*
X7311920Y-9337484D02*
X7273825Y-9337484D01*
X7273825Y-9337484D02*
X7254777Y-9347008D01*
X7254777Y-9347008D02*
X7245253Y-9356531D01*
X7245253Y-9356531D02*
X7235729Y-9375579D01*
X7235729Y-9375579D02*
X7235729Y-9423198D01*
X7235729Y-9423198D02*
X7245253Y-9442246D01*
X7245253Y-9442246D02*
X7254777Y-9451770D01*
X7254777Y-9451770D02*
X7273825Y-9461293D01*
X7273825Y-9461293D02*
X7311920Y-9461293D01*
X7311920Y-9461293D02*
X7330968Y-9451770D01*
X7330968Y-9451770D02*
X7340491Y-9442246D01*
X7340491Y-9442246D02*
X7350015Y-9423198D01*
X7588110Y-9537484D02*
X7588110Y-9337484D01*
X7673825Y-9537484D02*
X7673825Y-9432722D01*
X7673825Y-9432722D02*
X7664301Y-9413674D01*
X7664301Y-9413674D02*
X7645253Y-9404150D01*
X7645253Y-9404150D02*
X7616682Y-9404150D01*
X7616682Y-9404150D02*
X7597634Y-9413674D01*
X7597634Y-9413674D02*
X7588110Y-9423198D01*
X7797634Y-9537484D02*
X7778587Y-9527960D01*
X7778587Y-9527960D02*
X7769063Y-9518436D01*
X7769063Y-9518436D02*
X7759539Y-9499389D01*
X7759539Y-9499389D02*
X7759539Y-9442246D01*
X7759539Y-9442246D02*
X7769063Y-9423198D01*
X7769063Y-9423198D02*
X7778587Y-9413674D01*
X7778587Y-9413674D02*
X7797634Y-9404150D01*
X7797634Y-9404150D02*
X7826206Y-9404150D01*
X7826206Y-9404150D02*
X7845253Y-9413674D01*
X7845253Y-9413674D02*
X7854777Y-9423198D01*
X7854777Y-9423198D02*
X7864301Y-9442246D01*
X7864301Y-9442246D02*
X7864301Y-9499389D01*
X7864301Y-9499389D02*
X7854777Y-9518436D01*
X7854777Y-9518436D02*
X7845253Y-9527960D01*
X7845253Y-9527960D02*
X7826206Y-9537484D01*
X7826206Y-9537484D02*
X7797634Y-9537484D01*
X7978587Y-9537484D02*
X7959539Y-9527960D01*
X7959539Y-9527960D02*
X7950015Y-9508912D01*
X7950015Y-9508912D02*
X7950015Y-9337484D01*
X8130968Y-9527960D02*
X8111920Y-9537484D01*
X8111920Y-9537484D02*
X8073825Y-9537484D01*
X8073825Y-9537484D02*
X8054777Y-9527960D01*
X8054777Y-9527960D02*
X8045253Y-9508912D01*
X8045253Y-9508912D02*
X8045253Y-9432722D01*
X8045253Y-9432722D02*
X8054777Y-9413674D01*
X8054777Y-9413674D02*
X8073825Y-9404150D01*
X8073825Y-9404150D02*
X8111920Y-9404150D01*
X8111920Y-9404150D02*
X8130968Y-9413674D01*
X8130968Y-9413674D02*
X8140491Y-9432722D01*
X8140491Y-9432722D02*
X8140491Y-9451770D01*
X8140491Y-9451770D02*
X8045253Y-9470817D01*
X8216682Y-9527960D02*
X8235730Y-9537484D01*
X8235730Y-9537484D02*
X8273825Y-9537484D01*
X8273825Y-9537484D02*
X8292872Y-9527960D01*
X8292872Y-9527960D02*
X8302396Y-9508912D01*
X8302396Y-9508912D02*
X8302396Y-9499389D01*
X8302396Y-9499389D02*
X8292872Y-9480341D01*
X8292872Y-9480341D02*
X8273825Y-9470817D01*
X8273825Y-9470817D02*
X8245253Y-9470817D01*
X8245253Y-9470817D02*
X8226206Y-9461293D01*
X8226206Y-9461293D02*
X8216682Y-9442246D01*
X8216682Y-9442246D02*
X8216682Y-9432722D01*
X8216682Y-9432722D02*
X8226206Y-9413674D01*
X8226206Y-9413674D02*
X8245253Y-9404150D01*
X8245253Y-9404150D02*
X8273825Y-9404150D01*
X8273825Y-9404150D02*
X8292872Y-9413674D01*
X8369063Y-9613674D02*
X8378587Y-9604150D01*
X8378587Y-9604150D02*
X8397634Y-9575579D01*
X8397634Y-9575579D02*
X8407158Y-9556531D01*
X8407158Y-9556531D02*
X8416682Y-9527960D01*
X8416682Y-9527960D02*
X8426206Y-9480341D01*
X8426206Y-9480341D02*
X8426206Y-9442246D01*
X8426206Y-9442246D02*
X8416682Y-9394627D01*
X8416682Y-9394627D02*
X8407158Y-9366055D01*
X8407158Y-9366055D02*
X8397634Y-9347008D01*
X8397634Y-9347008D02*
X8378587Y-9318436D01*
X8378587Y-9318436D02*
X8369063Y-9308912D01*
M02*
