%TF.GenerationSoftware,KiCad,Pcbnew,10.0.3*%
%TF.CreationDate,2026-05-26T23:57:00-07:00*%
%TF.ProjectId,sd-led-card,73642d6c-6564-42d6-9361-72642e6b6963,rev?*%
%TF.SameCoordinates,Original*%
%TF.FileFunction,Drillmap*%
%TF.FilePolarity,Positive*%
%FSLAX45Y45*%
G04 Gerber Fmt 4.5, Leading zero omitted, Abs format (unit mm)*
G04 Created by KiCad (PCBNEW 10.0.3) date 2026-05-26 23:57:00*
%MOMM*%
%LPD*%
G01*
G04 APERTURE LIST*
%ADD10C,0.120000*%
%ADD11C,0.200000*%
G04 APERTURE END LIST*
D10*
X3800000Y-4995000D02*
X3800000Y-6500000D01*
X3900000Y-6600000D02*
G75*
G02*
X3800000Y-6500000I0J100000D01*
G01*
X3900000Y-6600000D02*
X6100000Y-6600000D01*
X6200000Y-6500000D02*
G75*
G02*
X6100000Y-6600000I-100000J0D01*
G01*
X6200000Y-6500000D02*
X6200000Y-4995000D01*
X3800000Y-4995000D02*
X3800000Y-3500000D01*
X3900000Y-3400000D02*
X5779289Y-3400000D01*
X5814645Y-3414645D02*
X6185355Y-3785355D01*
X6125000Y-4400000D02*
X6125000Y-4550000D01*
X6125000Y-4550000D02*
X6200000Y-4550000D01*
X6200000Y-3820711D02*
X6200000Y-4400000D01*
X6200000Y-4400000D02*
X6125000Y-4400000D01*
X6200000Y-4550000D02*
X6200000Y-4995000D01*
X3800000Y-3500000D02*
G75*
G02*
X3900000Y-3400000I100000J0D01*
G01*
X5779289Y-3400000D02*
G75*
G02*
X5814645Y-3414644I1J-50000D01*
G01*
X6185355Y-3785355D02*
G75*
G02*
X6199999Y-3820711I-35355J-35355D01*
G01*
D11*
X4054777Y-6917484D02*
X4054777Y-6717484D01*
X4054777Y-6717484D02*
X4102396Y-6717484D01*
X4102396Y-6717484D02*
X4130967Y-6727008D01*
X4130967Y-6727008D02*
X4150015Y-6746055D01*
X4150015Y-6746055D02*
X4159539Y-6765103D01*
X4159539Y-6765103D02*
X4169062Y-6803198D01*
X4169062Y-6803198D02*
X4169062Y-6831769D01*
X4169062Y-6831769D02*
X4159539Y-6869865D01*
X4159539Y-6869865D02*
X4150015Y-6888912D01*
X4150015Y-6888912D02*
X4130967Y-6907960D01*
X4130967Y-6907960D02*
X4102396Y-6917484D01*
X4102396Y-6917484D02*
X4054777Y-6917484D01*
X4254777Y-6917484D02*
X4254777Y-6784150D01*
X4254777Y-6822246D02*
X4264301Y-6803198D01*
X4264301Y-6803198D02*
X4273824Y-6793674D01*
X4273824Y-6793674D02*
X4292872Y-6784150D01*
X4292872Y-6784150D02*
X4311920Y-6784150D01*
X4378586Y-6917484D02*
X4378586Y-6784150D01*
X4378586Y-6717484D02*
X4369063Y-6727008D01*
X4369063Y-6727008D02*
X4378586Y-6736531D01*
X4378586Y-6736531D02*
X4388110Y-6727008D01*
X4388110Y-6727008D02*
X4378586Y-6717484D01*
X4378586Y-6717484D02*
X4378586Y-6736531D01*
X4502396Y-6917484D02*
X4483348Y-6907960D01*
X4483348Y-6907960D02*
X4473824Y-6888912D01*
X4473824Y-6888912D02*
X4473824Y-6717484D01*
X4607158Y-6917484D02*
X4588110Y-6907960D01*
X4588110Y-6907960D02*
X4578586Y-6888912D01*
X4578586Y-6888912D02*
X4578586Y-6717484D01*
X4835729Y-6917484D02*
X4835729Y-6717484D01*
X4835729Y-6717484D02*
X4902396Y-6860341D01*
X4902396Y-6860341D02*
X4969063Y-6717484D01*
X4969063Y-6717484D02*
X4969063Y-6917484D01*
X5150015Y-6917484D02*
X5150015Y-6812722D01*
X5150015Y-6812722D02*
X5140491Y-6793674D01*
X5140491Y-6793674D02*
X5121444Y-6784150D01*
X5121444Y-6784150D02*
X5083348Y-6784150D01*
X5083348Y-6784150D02*
X5064301Y-6793674D01*
X5150015Y-6907960D02*
X5130967Y-6917484D01*
X5130967Y-6917484D02*
X5083348Y-6917484D01*
X5083348Y-6917484D02*
X5064301Y-6907960D01*
X5064301Y-6907960D02*
X5054777Y-6888912D01*
X5054777Y-6888912D02*
X5054777Y-6869865D01*
X5054777Y-6869865D02*
X5064301Y-6850817D01*
X5064301Y-6850817D02*
X5083348Y-6841293D01*
X5083348Y-6841293D02*
X5130967Y-6841293D01*
X5130967Y-6841293D02*
X5150015Y-6831769D01*
X5245253Y-6784150D02*
X5245253Y-6984150D01*
X5245253Y-6793674D02*
X5264301Y-6784150D01*
X5264301Y-6784150D02*
X5302396Y-6784150D01*
X5302396Y-6784150D02*
X5321444Y-6793674D01*
X5321444Y-6793674D02*
X5330967Y-6803198D01*
X5330967Y-6803198D02*
X5340491Y-6822246D01*
X5340491Y-6822246D02*
X5340491Y-6879388D01*
X5340491Y-6879388D02*
X5330967Y-6898436D01*
X5330967Y-6898436D02*
X5321444Y-6907960D01*
X5321444Y-6907960D02*
X5302396Y-6917484D01*
X5302396Y-6917484D02*
X5264301Y-6917484D01*
X5264301Y-6917484D02*
X5245253Y-6907960D01*
X5426205Y-6898436D02*
X5435729Y-6907960D01*
X5435729Y-6907960D02*
X5426205Y-6917484D01*
X5426205Y-6917484D02*
X5416682Y-6907960D01*
X5416682Y-6907960D02*
X5426205Y-6898436D01*
X5426205Y-6898436D02*
X5426205Y-6917484D01*
X5426205Y-6793674D02*
X5435729Y-6803198D01*
X5435729Y-6803198D02*
X5426205Y-6812722D01*
X5426205Y-6812722D02*
X5416682Y-6803198D01*
X5416682Y-6803198D02*
X5426205Y-6793674D01*
X5426205Y-6793674D02*
X5426205Y-6812722D01*
M02*
