%TF.GenerationSoftware,KiCad,Pcbnew,10.0.3*%
%TF.CreationDate,2026-05-26T23:57:00-07:00*%
%TF.ProjectId,sd-led-card,73642d6c-6564-42d6-9361-72642e6b6963,rev?*%
%TF.SameCoordinates,Original*%
%TF.FileFunction,Paste,Bot*%
%TF.FilePolarity,Positive*%
%FSLAX46Y46*%
G04 Gerber Fmt 4.6, Leading zero omitted, Abs format (unit mm)*
G04 Created by KiCad (PCBNEW 10.0.3) date 2026-05-26 23:57:00*
%MOMM*%
%LPD*%
G01*
G04 APERTURE LIST*
G04 Aperture macros list*
%AMRoundRect*
0 Rectangle with rounded corners*
0 $1 Rounding radius*
0 $2 $3 $4 $5 $6 $7 $8 $9 X,Y pos of 4 corners*
0 Add a 4 corners polygon primitive as box body*
4,1,4,$2,$3,$4,$5,$6,$7,$8,$9,$2,$3,0*
0 Add four circle primitives for the rounded corners*
1,1,$1+$1,$2,$3*
1,1,$1+$1,$4,$5*
1,1,$1+$1,$6,$7*
1,1,$1+$1,$8,$9*
0 Add four rect primitives between the rounded corners*
20,1,$1+$1,$2,$3,$4,$5,0*
20,1,$1+$1,$4,$5,$6,$7,0*
20,1,$1+$1,$6,$7,$8,$9,0*
20,1,$1+$1,$8,$9,$2,$3,0*%
G04 Aperture macros list end*
%ADD10C,0.620000*%
%ADD11RoundRect,0.227500X0.227500X0.227500X-0.227500X0.227500X-0.227500X-0.227500X0.227500X-0.227500X0*%
%ADD12RoundRect,0.050000X0.350000X0.050000X-0.350000X0.050000X-0.350000X-0.050000X0.350000X-0.050000X0*%
%ADD13RoundRect,0.050000X0.050000X0.350000X-0.050000X0.350000X-0.050000X-0.350000X0.050000X-0.350000X0*%
%ADD14R,0.550000X0.780000*%
%ADD15R,0.550000X0.340000*%
%ADD16RoundRect,0.140000X0.140000X0.170000X-0.140000X0.170000X-0.140000X-0.170000X0.140000X-0.170000X0*%
%ADD17RoundRect,0.138000X-4.162000X-0.437000X4.162000X-0.437000X4.162000X0.437000X-4.162000X0.437000X0*%
G04 APERTURE END LIST*
D10*
%TO.C,DBG1*%
X39800000Y-51400000D03*
X39800000Y-52700000D03*
X44600000Y-51400000D03*
X44600000Y-52700000D03*
X39800000Y-54100000D03*
X41400000Y-54100000D03*
X43000000Y-54100000D03*
X44600000Y-54100000D03*
%TD*%
D11*
%TO.C,U1*%
X57980000Y-59480000D03*
X57980000Y-58350000D03*
X57980000Y-57220000D03*
X56850000Y-59480000D03*
X56850000Y-58350000D03*
X56850000Y-57220000D03*
X55720000Y-59480000D03*
X55720000Y-58350000D03*
X55720000Y-57220000D03*
D12*
X60300000Y-55550000D03*
X60300000Y-55950000D03*
X60300000Y-56350000D03*
X60300000Y-56750000D03*
X60300000Y-57150000D03*
X60300000Y-57550000D03*
X60300000Y-57950000D03*
X60300000Y-58350000D03*
X60300000Y-58750000D03*
X60300000Y-59150000D03*
X60300000Y-59550000D03*
X60300000Y-59950000D03*
X60300000Y-60350000D03*
X60300000Y-60750000D03*
X60300000Y-61150000D03*
D13*
X59650000Y-61800000D03*
X59250000Y-61800000D03*
X58850000Y-61800000D03*
X58450000Y-61800000D03*
X58050000Y-61800000D03*
X57650000Y-61800000D03*
X57250000Y-61800000D03*
X56850000Y-61800000D03*
X56450000Y-61800000D03*
X56050000Y-61800000D03*
X55650000Y-61800000D03*
X55250000Y-61800000D03*
X54850000Y-61800000D03*
X54450000Y-61800000D03*
X54050000Y-61800000D03*
D12*
X53400000Y-61150000D03*
X53400000Y-60750000D03*
X53400000Y-60350000D03*
X53400000Y-59950000D03*
X53400000Y-59550000D03*
X53400000Y-59150000D03*
X53400000Y-58750000D03*
X53400000Y-58350000D03*
X53400000Y-57950000D03*
X53400000Y-57550000D03*
X53400000Y-57150000D03*
X53400000Y-56750000D03*
X53400000Y-56350000D03*
X53400000Y-55950000D03*
X53400000Y-55550000D03*
D13*
X54050000Y-54900000D03*
X54450000Y-54900000D03*
X54850000Y-54900000D03*
X55250000Y-54900000D03*
X55650000Y-54900000D03*
X56050000Y-54900000D03*
X56450000Y-54900000D03*
X56850000Y-54900000D03*
X57250000Y-54900000D03*
X57650000Y-54900000D03*
X58050000Y-54900000D03*
X58450000Y-54900000D03*
X58850000Y-54900000D03*
X59250000Y-54900000D03*
X59650000Y-54900000D03*
%TD*%
D14*
%TO.C,D5*%
X57275000Y-64670000D03*
D15*
X56275000Y-64450000D03*
X55425000Y-64450000D03*
D14*
X54425000Y-64670000D03*
%TD*%
%TO.C,D3*%
X49475000Y-64670000D03*
D15*
X48475000Y-64450000D03*
X47625000Y-64450000D03*
D14*
X46625000Y-64670000D03*
%TD*%
%TO.C,D2*%
X45575000Y-64670000D03*
D15*
X44575000Y-64450000D03*
X43725000Y-64450000D03*
D14*
X42725000Y-64670000D03*
%TD*%
%TO.C,D1*%
X41675000Y-64670000D03*
D15*
X40675000Y-64450000D03*
X39825000Y-64450000D03*
D14*
X38825000Y-64670000D03*
%TD*%
D16*
%TO.C,C2*%
X43680000Y-52150000D03*
X42720000Y-52150000D03*
%TD*%
D14*
%TO.C,D6*%
X61175000Y-64670000D03*
D15*
X60175000Y-64450000D03*
X59325000Y-64450000D03*
D14*
X58325000Y-64670000D03*
%TD*%
%TO.C,D4*%
X53375000Y-64670000D03*
D15*
X52375000Y-64450000D03*
X51525000Y-64450000D03*
D14*
X50525000Y-64670000D03*
%TD*%
D16*
%TO.C,C1*%
X41680000Y-52150000D03*
X40720000Y-52150000D03*
%TD*%
D17*
%TO.C,CT1*%
X46100000Y-62350000D03*
%TD*%
M02*
